<?xml version="1.0" encoding="utf-8"?>
<!-- Generator: Adobe Illustrator 25.2.0, SVG Export Plug-In . SVG Version: 6.00 Build 0)  -->
<svg version="1.1" xmlns="http://www.w3.org/2000/svg" xmlns:xlink="http://www.w3.org/1999/xlink" x="0px" y="0px"
	 viewBox="0 0 1600 1200" style="enable-background:new 0 0 1600 1200;" xml:space="preserve">
<style type="text/css">
	.st0{fill:#D7ECFF;}
	.st1{fill:#F9D5A7;}
	.st2{font-family:'MyriadPro-Regular';}
	.st3{font-size:35.0611px;}
	.st4{fill:#AAC5E2;}
	.st5{fill:#4D7199;}
	.st6{fill:#264663;}
	.st7{fill:#FFB085;}
	.st8{fill:#FF8C5F;}
	.st9{fill:#7898B5;}
	.st10{fill:#AA4437;}
	.st11{fill:#CEA980;}
	.st12{fill:#BC7A5C;}
	.st13{fill:none;stroke:#BC7A5C;stroke-width:2;stroke-linecap:round;stroke-miterlimit:10;}
	.st14{fill:#FFAD9F;}
	.st15{fill:none;stroke:#1D1D1B;stroke-width:2;stroke-linecap:round;stroke-linejoin:round;stroke-miterlimit:10;}
	.st16{fill:none;stroke:#AA4437;stroke-linecap:round;stroke-miterlimit:10;}
</style>
<g id="BACKGROUND_x27_">
	<path class="st0" d="M404.46,959.46c0,0,129.95,250.85,388.21,165.06s213.83-138.63,340.98-165.06s347.74-429.27,189.96-695.09
		s-392.55-85.05-441.38-127.94S484.12-10.63,367.69,188.52s32.95,233.06,20.7,292.98S119.52,748.44,404.46,959.46z"/>
</g>
<g id="_x24_">
	<g>
		<circle class="st1" cx="946.42" cy="365.06" r="24.07"/>
		<circle class="st1" cx="1017.3" cy="293.64" r="24.07"/>
		<circle class="st1" cx="940.32" cy="231.15" r="24.07"/>
		<text transform="matrix(1 0 0 1 1008.5552 304.2867)" class="st2 st3">$</text>
		<text transform="matrix(1 0 0 1 937.2696 375.459)" class="st2 st3">$</text>
		<text transform="matrix(1 0 0 1 931.9922 241.4976)" class="st2 st3">$</text>
	</g>
</g>
<g id="CLOUDS">
	<g>
		<path class="st4" d="M510.21,490.14c0,33.97-31.56,62.39-73.83,69.61c-5.59,32.39-33.82,57.03-67.8,57.03
			c-24.74,0-46.44-13.06-58.56-32.66c-10.12,10.49-24.32,17.01-40.05,17.01c-24.3,0-44.95-15.56-52.56-37.26
			c-1.04,0.07-2.08,0.11-3.13,0.11c-24.26,0-43.92-19.66-43.92-43.91c0-24.26,19.66-43.92,43.92-43.92c3.34,0,6.6,0.37,9.73,1.09
			c-0.04-0.93-0.06-1.86-0.06-2.79c0-39.43,31.96-71.39,71.38-71.39c24.86,0,46.75,12.71,59.53,31.98
			c16.41-10.17,37.45-16.28,60.38-16.28C467.69,418.76,510.21,450.72,510.21,490.14z"/>
		<path class="st4" d="M1477.55,254.8c0,33.97-31.56,62.39-73.83,69.61c-5.59,32.39-33.82,57.03-67.8,57.03
			c-24.74,0-46.44-13.06-58.56-32.66c-10.12,10.49-24.32,17.01-40.05,17.01c-24.3,0-44.95-15.56-52.56-37.26
			c-1.04,0.07-2.08,0.11-3.13,0.11c-24.26,0-43.92-19.66-43.92-43.91c0-24.26,19.66-43.92,43.92-43.92c3.34,0,6.6,0.37,9.73,1.09
			c-0.04-0.93-0.06-1.86-0.06-2.79c0-39.43,31.96-71.39,71.38-71.39c24.86,0,46.75,12.71,59.53,31.98
			c16.41-10.17,37.45-16.28,60.38-16.28C1435.03,183.42,1477.55,215.38,1477.55,254.8z"/>
		<path class="st4" d="M1337.12,911.99c0,33.97-31.56,62.39-73.83,69.61c-5.59,32.39-33.82,57.03-67.8,57.03
			c-24.74,0-46.44-13.06-58.56-32.66c-10.12,10.49-24.32,17.01-40.05,17.01c-24.3,0-44.95-15.56-52.56-37.26
			c-1.04,0.07-2.08,0.11-3.13,0.11c-24.26,0-43.92-19.66-43.92-43.91c0-24.26,19.66-43.92,43.92-43.92c3.34,0,6.6,0.37,9.73,1.09
			c-0.04-0.93-0.06-1.86-0.06-2.79c0-39.43,31.96-71.39,71.38-71.39c24.86,0,46.75,12.71,59.53,31.98
			c16.41-10.17,37.45-16.28,60.38-16.28C1294.6,840.61,1337.12,872.57,1337.12,911.99z"/>
	</g>
</g>
<g id="ROCKET">
	<g>
		<path class="st5" d="M1288.71,556.12c-2.28,10.01-7.64,19.66-16.6,27.7l-78.9,70.85c-48.89,43.9-104.41,79.79-164.51,106.36
			L586.06,956.71h-0.01l-25.37-57.4v-0.01l-70.83-160.23v-0.01l210.82-93.19c0,0,0.01,0,0.02-0.01l179.66-79.42l40.4-17.86
			c67.76-29.95,140.32-47.59,214.27-52.09l98.06-5.96C1271.7,488.18,1296.07,523.97,1288.71,556.12z"/>
		<path class="st6" d="M919.63,780.62l-83.66,14.14c-41.39-166.13-133.6-149.22-135.28-148.9l179.66-79.42L919.63,780.62z"/>
		<path class="st4" d="M586.05,956.71l-22.88,10.11c-15.78,6.98-33.69,2.74-44.79-9.27c-2.86-3.1-5.27-6.71-7.07-10.79l-10.97-24.82
			l-19.68-44.51l-33.76-76.39c-1.02-2.31-1.8-4.66-2.35-7.03c-4.2-18.03,4.86-37.07,22.41-44.83l22.89-10.11l70.83,160.23v0.01
			l0.15,0.35L586.05,956.71z"/>
		<path class="st6" d="M1288.71,556.12c-2.28,10.01-7.64,19.66-16.6,27.7l-78.9,70.85c-48.89,43.9-104.41,79.79-164.51,106.36
			L586.06,956.71h-0.01l-25.37-57.4v-0.01C741.51,831.54,1160.56,671.96,1288.71,556.12z"/>
		<path class="st7" d="M518.38,957.55c-57.1,47.2-190.01,71.23-178.43,62.8c16.59-12.06,22.04-28.57,22.2-29.09
			c-2.03,0.41-238.9,49.06-222.88,30.75c1.44-1.64,3.85-3.78,7.04-6.31c0,0,0,0.01,0.01,0c32.51-25.72,145.73-91.93,133.88-92.62
			c-13.02-0.77-100.34,12.25-83.49,0c16.85-12.26,117.19-62.19,117.19-62.19c-28.34-9.05-57.44-18.24-57.44-18.24
			c76.34-45.92,156.39-49.37,188.09-48.64c0.55,2.37,1.33,4.72,2.35,7.03l57.79,130.73l6.62,14.99
			C513.11,950.84,515.52,954.45,518.38,957.55z"/>
		<path class="st8" d="M518.38,957.55c-57.1,47.2-190.01,71.23-178.43,62.8c16.59-12.06,22.04-28.57,22.2-29.09
			c-2.03,0.41-238.9,49.06-222.88,30.75c1.44-1.64,3.85-3.78,7.04-6.31c0,0,0,0.01,0.01,0c69.84-18.64,209.42-57.23,229.96-73.21
			c27.58-21.44,6.13,23.89,10.73,41.82c3.78,14.78,62.76-8.65,117.68-52.54l6.62,14.99C513.11,950.84,515.52,954.45,518.38,957.55z"
			/>
		<path class="st9" d="M586.05,956.71l-22.88,10.11c-15.78,6.98-33.69,2.74-44.79-9.27c-2.86-3.1-5.27-6.71-7.07-10.79l-10.97-24.82
			l-19.68-44.51c35.61,32.24,66.89,26.85,80.17,22.23L586.05,956.71z"/>
	</g>
</g>
<g id="FEMALE">
	<g>
		<path class="st10" d="M918.49,446.07l-31.88,16.84c-0.14,0.07,5.3-2.85,5.2-2.74l-10.72-3.51c0,0-2.06,1.75-5.53,4.71
			c-1.01,0.86-2.14,1.83-3.38,2.89c-15.59,13.34-47.72,41.04-63.68,56.26c-5.61,5.34-10.51,8.93-14.78,11.26
			c-12.14,6.64-19.13,3.15-22.53,1.11c-3.54-2.13-30.02-54.81-42.17-79.4c-1.78-3.61-3.26-6.62-4.3-8.76
			c3.59-1.62,7.94-3.7,12.48-5.94c5.78-2.84,11.85-5.93,17.03-8.64c2.22,4.82,6.34,13.68,11.02,23.39
			c9.38,19.51,21,42.48,23.97,43.15c3.72,0.82,44.89-33.19,71.93-53.49c2.64-1.99,5.16-3.84,7.48-5.53
			c7.09-5.1,12.48-8.58,14.81-9.13c2.16-0.24,4.24-0.25,6.25-0.07c1.43,0.14,2.83,0.36,4.17,0.67c10.24,2.36,18.03,9.41,22.35,14.26
			C917.13,444.4,917.9,445.32,918.49,446.07z"/>
		<g>
			<path class="st6" d="M927.69,495.6v7.05c0,0.69-0.49,1.29-1.17,1.43l-3.28,0.68c-0.78-0.77-1.59-1.47-2.44-2.1
				c-13.03-9.76-33.89-4.46-46.19,0.07c-0.88,0.33-1.72,0.65-2.51,0.96c-0.99-0.37-2.04-0.69-3.14-0.95
				c-5.04-1.23-11.27-1.4-19.03,0.03c-3.42,0.62-7.13,1.56-11.17,2.86c-16.35,5.25-40.39,15.86-64.63,28.16l-1.92-8.66
				c-0.12-0.53,0.07-1.08,0.47-1.42c0.11-0.1,0.23-0.18,0.37-0.24l32.93-14.69l35.04-15.63l5.23-2.33h0.27v0.01l5.63,0.1
				L927.69,495.6z"/>
			<path class="st5" d="M926.16,436.22l1.61,52.19l-0.08,7.19l-75.78-4.68l-5.65-0.1v-81.1c0-1.79,1.07-3.31,2.58-4
				c0.73-0.33,1.56-0.47,2.42-0.36l71.07,26.43C924.56,432.08,926.2,433.99,926.16,436.22z"/>
			<circle class="st4" cx="897.82" cy="445.04" r="7.89"/>
		</g>
		<g>
			<path class="st1" d="M889.5,745.21v0.01c-0.16,5.84-0.31,10.81-0.42,14.71c-0.18,6.08-0.28,9.53-0.28,9.53
				c-2.29,0.93-4.6,1.71-6.91,2.35c-1.06,0.3-2.12,0.56-3.17,0.8c-16.39,3.72-32.25,1.01-40.88-1.17c-4.2-1.05-6.68-1.98-6.68-1.98
				c-8.96-30.3-1.6-185.87-1.6-185.87s-68.42,39.49-102.12,49.02c-26.58,7.51-37.37-18.36-40.84-30.35
				c-0.93-3.22-1.34-5.44-1.38-5.74c-1.45-10.56,38.45-36.38,80.43-58.35v-0.01c2.82-1.47,5.65-2.93,8.48-4.37
				c24.24-12.3,48.28-22.91,64.63-28.16c15.2-4.88,25.83-4.71,33.34-1.94c5.43,2,9.24,5.36,11.98,9.15c5.1,7.05,6.5,15.6,7.78,19.68
				C894.85,542.02,891.13,686.73,889.5,745.21z"/>
			<path d="M898.78,866.48c-9.43-0.34-68.53-55.83-65.47-59.23c2.41-2.68,3.97-25.97,4.53-35.81c8.63,2.18,24.49,4.89,40.88,1.17
				c1.05-0.24,2.11-0.5,3.17-0.8c2.44,6,6.03,14.72,10.01,24.12c6.88,16.21,14.95,34.45,20.39,44.34
				C923.52,860.69,908.2,866.82,898.78,866.48z"/>
			<path class="st11" d="M926.93,759.93h-37.85c0.11-3.9,0.26-8.87,0.42-14.71v-0.01c1.63-58.48,5.35-203.19,2.36-212.69
				c-1.28-4.08-2.68-12.63-7.78-19.68c-2.74-3.79-6.55-7.15-11.98-9.15c12.49-4.93,37.57-12.33,51.14,1.07
				c5.08,5.02,8.55,12.96,9.13,25.04C935.1,585.97,926.93,759.93,926.93,759.93z"/>
			<path d="M967.44,827.67c-25.13,9.43-60.52-18.38-75.54-31.74c-3.98-9.4-7.57-18.12-10.01-24.12c2.31-0.64,4.62-1.42,6.91-2.35
				c0,0,0.1-3.45,0.28-9.53h32.74C935.84,785.87,980.79,823.77,967.44,827.67z"/>
		</g>
		<g>
			<path class="st7" d="M755.69,418.82c-0.03,0.03-0.05,0.05-0.08,0.08c-4.97,4.93-13.31,9.71-18.39,12.38
				c-0.2-0.63-0.41-1.25-0.62-1.87c-3.12-9.42-6.3-18.49-9.38-26.32c-4.16-10.62-8.11-18.95-11.36-22.74
				c-8.65-10.09-28.39-24.35-42.65-34.06c12.94,0.05,26.76,1.11,34.14,4.79c16,8,47.35,48.66,48.32,66.64
				C755.69,418.09,755.7,418.46,755.69,418.82z"/>
			<path class="st1" d="M760.33,427.76c0.14,0.7-1.27,2.2-3.48,4.03c-4.18,3.48-11.22,8.15-15.97,10.86
				c-0.63-1.97-1.26-3.96-1.89-5.93c-0.59-1.82-1.18-3.64-1.77-5.44c5.08-2.67,13.42-7.45,18.39-12.38
				C757.27,421.52,759.98,426,760.33,427.76z"/>
			<path class="st12" d="M755.69,418.82c-0.03,0.03-0.05,0.05-0.08,0.08c-4.97,4.93-13.31,9.71-18.39,12.38
				c-0.2-0.63-0.41-1.25-0.62-1.87c-3.12-9.42-6.3-18.49-9.38-26.32c10.34,8.01,20.42,13.88,28.45,14.63
				C755.69,418.09,755.7,418.46,755.69,418.82z"/>
		</g>
		<g>
			<path class="st7" d="M782.54,529.59c-2.43,1.53-38.58,19.35-49.14,26.53c-21.74,14.8-44.34,46.86-46.8,46.14
				c-4.38-1.29-37.73-105.34-43.45-120.27c7.34-3.24,12.95-5.87,13.65-6.49c1.52-1.34-1.14-7.85-3.58-11.74
				c0.15-0.07-0.31-2.5-1.38-6.45c-5.67-20.93-28.35-84.65-67.06-66.77c-1.31,0.6-2.5,1.4-3.55,2.34l25.74-28.84l9.97-11.17
				c1.31,0.83,11.65,7.09,20.89,4.25c0.42-0.13,0.84-0.28,1.26-0.45c2.6-1.06,5.07-2.9,7.18-5.88c0.53-0.74,1.03-1.55,1.51-2.44
				l-0.14-1.08c2.71-0.2,6.43-0.45,10.75-0.64c4.47-0.21,9.57-0.36,14.82-0.34c14.26,9.71,34,23.97,42.65,34.06
				c5.65,6.58,13.41,26.89,20.74,49.06c0.21,0.62,0.42,1.24,0.62,1.87c0.59,1.8,1.18,3.62,1.77,5.44c0.63,1.97,1.26,3.96,1.89,5.93
				C748.04,465.41,779.98,520.19,782.54,529.59z"/>
			<path class="st1" d="M636.37,370.31c-8.63,6.26-23.15-2.08-29.4-6.27l9.97-11.17c1.31,0.83,11.65,7.09,20.89,4.25
				C638.98,360.83,640.31,367.45,636.37,370.31z"/>
			<path class="st1" d="M656.37,363.93c-5.96,2.16-13.59-3.85-17.28-7.26c2.6-1.06,5.07-2.9,7.18-5.88
				c0.53-0.74,1.03-1.55,1.51-2.44l-0.14-1.08c2.71-0.2,6.43-0.45,10.75-0.64C660.29,351.44,663.26,361.44,656.37,363.93z"/>
			<circle cx="650.75" cy="374.64" r="5.02"/>
			<circle cx="685.89" cy="431.28" r="5.02"/>
			<circle cx="710.17" cy="482.68" r="5.02"/>
			<path class="st13" d="M693.62,360.86c0,0,24.8,18.06,34.67,43.76"/>
		</g>
		<g>
			<path class="st14" d="M644.25,320.44c-4.41,1.73-9.26,2.97-14.52,3.74c-6.18,0.9-11.67,0.83-16.54,0.04
				c-29.38-4.73-36.22-35.44-36.22-35.44c-17.7,3.4-32.68-13.28-25.87-25.19c6.8-11.92,25.87,5.44,25.87,5.44
				c19.06-6.46,46.64-61.95,46.64-61.95c9.19,20.08,51.67,43.91,51.67,43.91C678.49,288.98,667.26,311.4,644.25,320.44z"/>
			<path d="M689.65,326.23c-0.68,5.48-10.87,10.11-25.56,13.97c-5.14,1.35-10.83,2.6-16.86,3.77l-0.55-4.32l-2.43-19.21
				c23.01-9.04,34.24-31.46,31.03-69.45c0,0-42.48-23.83-51.67-43.91c0,0-27.58,55.49-46.64,61.95c0,0-19.07-17.36-25.87-5.44
				c-6.81,11.91,8.17,28.59,25.87,25.19c0,0,6.84,30.71,36.22,35.44l3.12,24.67c-35.98,4.79-71.68,6.95-71.68,6.95
				s-11.58-36.76-13.28-65.7s6.81-130.38,90.9-116.08C706.33,188.35,690.33,320.78,689.65,326.23z"/>
			<path class="st14" d="M647.78,348.35c-0.48,0.89-0.98,1.7-1.51,2.44c-2.11,2.98-4.58,4.82-7.18,5.88
				c-0.42,0.17-0.84,0.32-1.26,0.45c-9.24,2.84-19.58-3.42-20.89-4.25c-0.09-0.06-0.14-0.09-0.14-0.09l-0.29-2.27l-0.2-1.62
				l-1.82-14.37l-1.3-10.3c4.87,0.79,10.36,0.86,16.54-0.04c2.17-0.32,4.26-0.71,6.29-1.2c1.05-0.25,2.1-0.52,3.17-0.83
				c0.43-0.12,0.85-0.25,1.27-0.38c1.03-0.32,2.06-0.68,3.1-1.07c0.23-0.08,0.46-0.17,0.69-0.26l2.43,19.21l0.16,1.26l0.39,3.06
				l0.23,1.88l0.18,1.42L647.78,348.35z"/>
			<ellipse cx="616.76" cy="270.18" rx="5.84" ry="8.72"/>
			<ellipse cx="655.78" cy="266.37" rx="5.84" ry="8.72"/>
			<path class="st15" d="M609.59,255.88c0.63-2.81,3.32-4.93,6.53-4.93c3.07,0,5.65,1.93,6.43,4.55"/>
			<path class="st15" d="M648.65,252.08c0.63-2.81,3.32-4.93,6.53-4.93c3.07,0,5.65,1.93,6.43,4.55"/>
			<path class="st15" d="M631.67,301.33c1.59,3.64,5.78,5.8,10.12,4.96c4.15-0.8,7.14-4.08,7.51-7.83"/>
			<path class="st15" d="M638.84,258.35l2.14,19.97c0,0,6.75-2.58,7.82,1.04c1.62,5.48-0.86,9.35-6.68,9.63"/>
			<path class="st10" d="M646.84,340.91c-7.22-0.77-22.78-2.77-32.35-6.39l-1.3-10.3c4.87,0.79,10.36,0.86,16.54-0.04
				c2.17-0.32,4.26-0.71,6.29-1.2c1.05-0.25,2.1-0.52,3.17-0.83c0.42-0.12,0.84-0.24,1.27-0.38c1.03-0.32,2.06-0.68,3.1-1.07
				c0.23-0.08,0.46-0.17,0.69-0.26l2.43,19.21L646.84,340.91z"/>
			<path class="st10" d="M556.71,267.6c0,0,9.02-4.06,16.34,7.5S553.31,284.28,556.71,267.6z"/>
		</g>
		<path class="st1" d="M656.8,475.5c-0.7,0.62-6.31,3.25-13.65,6.49c-5.35,2.36-11.61,5.04-17.57,7.49
			c-4.68,1.93-9.16,3.72-12.85,5.1c-5.05,1.9-8.62,3.04-9.17,2.75c-1.41-0.75-3.57-5.69-4.91-9.06c0.39-0.01,0.76-0.09,1.13-0.25
			c5.22-2.38,11.42-5.02,20.53-9.08c8.16-3.63,18.66-8.42,32.9-15.18h0.01C655.66,467.65,658.32,474.16,656.8,475.5z"/>
		<path class="st7" d="M653.3,463.58h-0.01c-14.24,6.76-24.74,11.55-32.9,15.18c-9.11,4.06-15.31,6.7-20.53,9.08
			c-0.37,0.16-0.74,0.24-1.13,0.25c-0.87,0.01-1.73-0.38-2.27-1.12c-27.64-37.23-23.06-72.74-19.61-86.82
			c0.45-1.84,1.24-3.55,2.32-5.05l2.12-2.38l0.02-0.02c1.05-0.94,2.24-1.74,3.55-2.34C630.87,369.11,654.24,463.14,653.3,463.58z"/>
		<path class="st12" d="M737.22,553.7c-21.74,14.8-48.16,49.27-50.62,48.55c-4.38-1.29-37.73-105.34-43.45-120.27
			c7.34-3.24,12.95-5.87,13.65-6.49c1.52-1.34-1.14-7.85-3.58-11.74c0.15-0.07-0.31-2.5-1.38-6.45
			C667.71,479.9,708.41,535.53,737.22,553.7z"/>
		<path class="st13" d="M583.1,391.34c0,0,45.63-25.49,69.83,68.59"/>
		<line class="st16" x1="774.8" y1="512.3" x2="780.05" y2="519.9"/>
		<line class="st16" x1="782.06" y1="508.77" x2="787.31" y2="516.37"/>
		<line class="st16" x1="788.71" y1="506.12" x2="793.96" y2="513.72"/>
		<line class="st16" x1="794.29" y1="503.54" x2="799.54" y2="511.15"/>
		<path class="st14" d="M805.98,508.78l-32.93,14.69c-0.14,0.06,5.48-2.49,5.37-2.39l-10.47-4.22c0,0-2.17,1.61-5.83,4.33
			c-1.06,0.79-2.26,1.68-3.56,2.66c-16.44,12.28-50.34,37.79-67.27,51.91c-5.95,4.96-11.08,8.21-15.49,10.26
			c-12.55,5.82-19.3,1.87-22.55-0.39c-3.39-2.36-26.32-56.68-36.81-82.02c-1.54-3.72-2.81-6.82-3.71-9.03
			c3.69-1.38,8.17-3.17,12.85-5.1c5.96-2.45,12.22-5.13,17.57-7.49c1.9,4.96,5.42,14.07,9.44,24.07
			c8.07,20.09,18.14,43.78,21.06,44.64c3.66,1.07,46.99-30.14,75.32-48.6c2.77-1.81,5.4-3.49,7.83-5.02
			c7.41-4.62,13.02-7.73,15.38-8.13c2.17-0.1,4.25,0.03,6.24,0.34c1.42,0.23,2.8,0.55,4.12,0.95c10.06,3.03,17.37,10.58,21.36,15.71
			C804.74,507.02,805.44,507.99,805.98,508.78z"/>
		<path class="st10" d="M652.59,506.06c-10.17,0.57-26.42-1.2-36.15-2.45c-1.54-3.72-2.81-6.82-3.71-9.03
			c3.69-1.38,8.17-3.17,12.85-5.1c5.96-2.45,12.22-5.13,17.57-7.49C645.05,486.95,648.57,496.06,652.59,506.06z"/>
		<g>
			<path class="st10" d="M777.42,508.4c1.14,0.52,2.26,1.02,3.31,1.64c1.06,0.6,2.07,1.27,3.05,1.98c0.98,0.71,1.92,1.48,2.81,2.31
				c0.89,0.84,1.75,1.71,2.49,2.76c-1.23-0.37-2.34-0.9-3.41-1.49c-1.07-0.59-2.09-1.25-3.07-1.97c-0.98-0.72-1.92-1.49-2.81-2.34
				C778.93,510.43,778.03,509.56,777.42,508.4z"/>
		</g>
		<g>
			<path class="st10" d="M785.26,504.06c1.12,0.58,2.2,1.16,3.21,1.84c1.02,0.67,1.99,1.4,2.92,2.18c0.93,0.78,1.82,1.61,2.66,2.49
				c0.83,0.9,1.63,1.83,2.3,2.93c-1.2-0.45-2.27-1.06-3.31-1.72c-1.03-0.66-2.01-1.39-2.94-2.17c-0.93-0.78-1.82-1.62-2.65-2.52
				C786.64,506.17,785.81,505.25,785.26,504.06z"/>
		</g>
		<g>
			<path class="st10" d="M792.83,500.91c1.07,0.62,2.08,1.27,3.03,2.01c0.95,0.73,1.84,1.51,2.7,2.34c0.85,0.83,1.66,1.7,2.41,2.63
				c0.75,0.94,1.46,1.91,2.03,3.04c-1.15-0.52-2.15-1.2-3.12-1.91c-0.96-0.72-1.86-1.5-2.71-2.33c-0.85-0.83-1.66-1.71-2.4-2.65
				C794.04,503.08,793.29,502.11,792.83,500.91z"/>
		</g>
	</g>
</g>
</svg>
